<?xml version="1.0" encoding="utf-8"?>
<!-- Generator: Adobe Illustrator 20.1.0, SVG Export Plug-In . SVG Version: 6.00 Build 0)  -->
<svg version="1.1" id="Layer_2" xmlns="http://www.w3.org/2000/svg" xmlns:xlink="http://www.w3.org/1999/xlink" x="0px" y="0px"
	 viewBox="0 0 333 494.3" style="enable-background:new 0 0 333 494.3;" xml:space="preserve">
<style type="text/css">
	.st0{fill:#FEDEBB;stroke:#C49A6C;stroke-miterlimit:10;}
	.st1{fill:#D8403B;stroke:#8D191C;stroke-miterlimit:10;}
	.st2{fill:#FFFFFF;stroke:#998C8F;stroke-miterlimit:10;}
	.st3{fill:none;stroke:#C49A6C;stroke-miterlimit:10;}
	.st4{fill:#FFFFFF;stroke:#000000;stroke-miterlimit:10;}
	.st5{fill:#739292;}
	.st6{fill:#FFFFFF;}
	.st7{fill:#ED2024;stroke:#8D191C;stroke-miterlimit:10;}
</style>
<g>
	<polygon class="st0" points="72.1,451.3 31.1,444.7 31.1,478.6 24.2,494.3 71.2,494.3 	"/>
	<path class="st1" d="M118.2,286.3c0,0-46.5,21.8-55.8,28.3s-18.3,32.8-19.8,37.5s-5.8,35.8-9.5,45s-9,27.5-9,27.5
		s33.3,9.3,40.8,9.5s7.5,0.3,7.5,0.3l-1.3,60h173.1l11.4-28.5l-39.8-118.8l55-48c0,0-39.6-19.5-52.5-20.5
		C205.6,277.5,118.2,286.3,118.2,286.3z"/>
	<path class="st2" d="M121.6,284.3c0,0-18.2,0.5-22.4,9.5s5.6,29,42.7,25s45.9-8,57.2-21c11.3-13,5.9-21.8,5.9-21.8s-1.5-2-13.3-1.3
		S121.6,284.3,121.6,284.3z"/>
	<path class="st0" d="M115.6,272.8l1.5,15c0,0-4.5,3.3-4.4,9.3s7.4,15.5,28.4,14.5s32-5.3,38-10.3s10.8-12.5,10.3-17
		c-0.5-4.5-2.4-11.5-2.4-11.5l-6-37.5L115.6,272.8"/>
	<path class="st0" d="M189.5,200.2c0,0,7.5-21.4,11.1-25.5c3.6-4.1,7.3,0.1,7.6,1.4s0.8,21.2,0,24.1c-0.8,2.9-10.8,16.1-12.5,17.4
		s-6.2,2.7-6.2,2.7V200.2"/>
	<path class="st0" d="M74.1,177.1c0,0,1.5-3.8-2-3.5s-8,0-8.3,5.3s-0.3,16.5,1.8,21.4c2,4.9,7.3,10.4,8.1,12.6s2.4,6.6,6.1,7
		s3.7,0.4,3.7,0.4l4.8-23.3L74.1,177.1"/>
	<path class="st3" d="M65.7,184.1c0,0,3.8-1.8,5.8-1.5s5.2,1.5,5.2,1.5l5.3,20l-4,8.8"/>
	<path d="M81.9,204.1c0,0-6.3-27-9.8-30.5s-5.8-2.1-7.3-9.2c-1.5-7.1-4-31.8-4-31.8s-3.3-22,4-29.2s18.3-13.8,18.3-13.8
		s25.3-20.8,38.5-20.3s18.1-0.5,26.2,1.3c8.1,1.8,18.3,5.3,18.3,5.3s4-1.3,5-3.3s1.8-5.5,1.8-5.5v9c0,0,5.5-2.3,8-4.3
		s3.8-6.5,3.8-6.5l-2.8,11.3c0,0,2.8,3,7,2s6.3-1.5,6.3-1.5l-7.3,5.8l10.3,3.3l-8,2c0,0,13.5,10.5,17.3,18s5,46.5,4.3,50.2
		s-5.3,12.5-9.5,16.5s-10.5,19.9-10.5,19.9l-3,10.1L81.9,204.1"/>
	<path class="st0" d="M188.7,202.8c0,0-0.3,33.5-2,36s-14.1,21.8-18.2,24.8s-23,17.3-23,17.3s-7.1-0.3-9.8,0s-8.5,1.3-8.5,1.3
		s-16.5-13-21.5-17.8s-14.5-11.9-17.3-16.6c-2.8-4.7-6.5-43.7-6.5-43.7l3,1c0,0-0.3-47.3,0-49.5s6.9-11,6.9-11s0.3,6.3,4.3,6.8
		s27-5.5,33.5-11.8c6.5-6.3,24.2-21.5,25.8-21.2s3.4,11.2,1.9,15.2s-6.8,10.5-6.8,10.5s8.3-0.8,10.8-5s6-11.7,6-11.7
		s1.5,15.2-1.5,19.5s-7.8,10.3-7.8,10.3s10.3-1.3,14.8-7.3s5.9-9,5.9-9s4.6,2.5,5.8,6.3s0.3,11.8,0.3,11.8l6.8-13.3
		c0,0-1.5,21.3-2.5,24.7s-3.3,17.1-3.3,17.1L188.7,202.8z"/>
	<path class="st4" d="M151.6,195.8c0,0-1.5-5.3-0.7-5.9s8.3-1.6,10.3-1.4c2,0.2,13.1,2.6,13.1,2.6l-2.1,6.4c0,0-8,1.8-11.6,0.9
		C156.9,197.4,151.6,195.8,151.6,195.8z"/>
	<path class="st5" d="M164.7,189.1c0,0-2.5,1.8-1.9,4.6c0.6,2.8,3,4.6,3,4.6l6.4-0.9l2.1-6.4c0,0-5.1-1.6-6.8-1.9
		S164.7,189.1,164.7,189.1z"/>
	<path class="st4" d="M97.4,189.8c0,0,6.4-1.8,12-1.4s12.3,2,12.3,2l-2.1,7.8h-7.9c0,0-6,0-9.5-0.6s-4.8-1.9-4.8-1.9V189.8z"/>
	<path class="st5" d="M111.7,188.8c-0.5,0-0.9-0.1-1.4-0.2c-0.4,0.6-1.5,2.5-1.3,4.7c0.3,2.6,2.8,4.9,2.8,4.9s5.9-0.1,7.3,0
		c1.2,0.1,2.4-5.7,2.7-7.3c-1.1-0.2-2.2-0.5-3.3-0.7C116.1,189.6,113.9,189.3,111.7,188.8z"/>
	<path class="st3" d="M145.5,251.7c0,0-0.8,4-3.7,4.3c-2.8,0.3-5,0-5,0"/>
	<path class="st3" d="M155.5,243.9c0,0-4,2-7.7,2.7c-3.7,0.7-18.8,1.5-21.3,1s-4.2-1-4.2-1"/>
	<path class="st3" d="M128.9,216.1c0,0-3.3,0.3-4.3,1.2s-1.8,9-1,9.8c0.8,0.8,7.7,0,7.7,0s3.3,3.5,6.8,3.7c3.5,0.2,6.4-3.2,6.4-3.2
		s6.2,1.7,6.5,0.7c0.3-1,2.2-5.5,0.7-8.8c-1.5-3.3-3.1-3.5-5.6-3.4"/>
	<path class="st3" d="M141.9,192.7c0,0,1,8.6,1.8,13.2c0.8,4.7,3.2,17.6,3.2,17.6"/>
	<path d="M147.9,164.4c0,0,14.5,2.8,19.3,5.8c4.8,3,9.3,7.3,10.5,6.8c1.2-0.5,1.2-4.7,1.2-4.7s-8.2-5-12.5-6.2
		C162,165.1,147.9,164.4,147.9,164.4z"/>
	<path d="M91.9,176.1v-4.3c0,0,4.2-5,12-5.7c7.8-0.7,20.2-1,20.2-1s-15.2,2.8-20.5,5.2C98.2,172.6,91.9,176.1,91.9,176.1z"/>
	<path d="M185.7,182.5c0,0-2.8,0.3-18.8,0c-16-0.3-22.6,4.3-22.6,4.3h-14.9v-2.5c0,0-23-3-27-2.9c-4,0.1-10.6,1.1-10.6,1.1l-5.7-2.2
		h-1.3v9.7l4.6,2.7c0,0,1.8,1.3,2.4,4.9c0.7,3.6,9.1,6.4,9.1,6.4l22.2,0c0,0,2.5-0.5,4.5-3.9c2-3.4,2.3-8.6,2.3-8.6l14.4-0.3
		c0,0,2.8,9.5,5.1,12s16.5,3,23.7,2.5s7.8-5.6,7.8-5.6l6.1-6.6L185.7,182.5z M124.8,201.4c-0.4,0.6-6.1,2.2-16.7,2.4s-15-7.8-15-7.8
		l-0.6-11.5c0,0,5.1-1,12.9-1.3s20.9,2.6,20.9,2.6S128.4,196.6,124.8,201.4z M180.7,198.2c-0.3,0.6-5.9,5.7-16.5,6.5
		c-10.6,0.8-14.9-4.5-14.9-4.5l-2-13.4c0,0,5.1-1.2,12.8-1.9c7.7-0.7,21,1.1,21,1.1S181.1,197.6,180.7,198.2z"/>
	<path class="st0" d="M202.7,182.5c0,0-8.5,8.1-9.8,11.7c-1.3,3.5,0.8,16.5,0.8,16.5"/>
	<path class="st3" d="M97.4,189.8c0,0,6.4-1.8,12-1.4s12.3,2,12.3,2l-2.1,7.8h-7.9c0,0-6,0-9.5-0.6s-4.8-1.9-4.8-1.9V189.8z"/>
	<path class="st3" d="M151.8,195.9c0,0-1.5-5.3-0.7-5.9s8.3-1.6,10.3-1.4c2,0.2,13.1,2.6,13.1,2.6l-2.1,6.4c0,0-8,1.8-11.6,0.9
		C157.2,197.5,151.8,195.9,151.8,195.9z"/>
	
		<ellipse transform="matrix(5.173596e-02 -0.9987 0.9987 5.173596e-02 -83.269 298.6815)" cx="115.6" cy="193.2" rx="2.1" ry="2.1"/>
	
		<ellipse transform="matrix(5.173596e-02 -0.9987 0.9987 5.173596e-02 -33.3514 351.6802)" cx="168.5" cy="193.4" rx="2.1" ry="2.1"/>
	<circle class="st6" cx="113.8" cy="194.1" r="1"/>
	<circle class="st6" cx="167" cy="194.7" r="1"/>
	<path class="st7" d="M72.4,434.3c0,0-10.1-52-8.6-58.8"/>
	<path class="st2" d="M26,418.5c0,0,4.7,7.6,21.2,9.6s24.6,0,24.6,0v16.3l0.3,7c0,0-21.6,0.2-34.9-4.3s-17-9-17-9L26,418.5z"/>
	<path class="st1" d="M258.2,294.9c0,0,5-1.8,12.8,4.2s10.8,11,16.3,20.3s23,62.2,26,69.2s7.5,16.4,7.5,16.4s-12.5,13.1-31.3,15.6
		s-44.2,3-44.2,3l-4.6-3l-32-77.5"/>
	<path class="st0" d="M245.3,434.9l10.3,30.9l-15.1,28.5h70.6c0,0,8-9.8,7-20.3s-1.7-46.5-1.7-46.5L245.3,434.9z"/>
	<path class="st2" d="M240.6,420.6c0,0,26.7,1.6,46.6-2.1c19.9-3.7,31.3-18.3,31.3-18.3s6.2,11.3,5.2,18.3c-1,7.1-10,12.6-33,18.6
		s-43.9,2.1-43.9,2.1L240.6,420.6z"/>
</g>
</svg>
